<svg id="Layer_1" data-name="Layer 1" xmlns="http://www.w3.org/2000/svg" viewBox="0 0 159 121.12"><defs><style>.cls-1{fill:#221f20;}.cls-2{fill:#d72a34;}</style></defs><title>aurora-machine-logo-footer</title><path class="cls-1" d="M15.18,55.67h.43L29.3,84H22.44l-1.75-4H9.55L7.77,84H1.17Zm3.49,19.6L15.1,66.65l-3.64,8.62ZM36.54,56.53H30.06V72.32c0,8.19,4.46,12.57,11.57,12.57s11.52-4.42,11.52-12.61V56.53H47.29V72.28c0,4.38-1.94,6.6-5.35,6.6-3.61,0-5.4-2.41-5.4-7.26Zm21.35,0H65c3.49,0,6.21.23,8.58,1.94a7.57,7.57,0,0,1,3.22,6.13,8,8,0,0,1-5.12,7.6L80,84H72.52L65.19,73.21h-.94V84H57.89Zm6.36,5v7.6h1.4c3.34,0,5.08-1.39,5.08-3.87,0-2.76-1.78-3.73-5.39-3.73Zm19.53-1.75a13.7,13.7,0,0,1,9.85-4.15,13.9,13.9,0,0,1,9.94,4.19,15.48,15.48,0,0,1,1.2,19.44,13.92,13.92,0,0,1-11.14,5.63,13.67,13.67,0,0,1-9.85-4.19,15.26,15.26,0,0,1,0-20.92m9.85,18.9c4,0,7.26-3.53,7.26-8.42s-3.22-8.46-7.26-8.46-7.25,3.57-7.25,8.46,3.22,8.42,7.25,8.42M111,56.53H118c3.49,0,6.21.23,8.58,1.94a7.57,7.57,0,0,1,3.22,6.13,8,8,0,0,1-5.13,7.6L133.06,84h-7.48l-7.34-10.79h-.93V84H111Zm6.36,5v7.6h1.4c3.33,0,5.08-1.39,5.08-3.87,0-2.76-1.79-3.73-5.39-3.73ZM146,55.67h.43L160.15,84h-6.87l-1.75-4H140.4l-1.79,4H132Zm3.49,19.6-3.57-8.62-3.64,8.62ZM1.18,98.27H2.65l1-5.34L6.3,98.59h.14L9,92.93l1,5.34h1.57L9.71,88.5h-.1L6.38,95.42,3.14,88.5H3Zm27.52,0,4.46-9.77h.13l4.31,9.77H35.92l-.74-1.68H31.06l-.75,1.68Zm5.92-3-1.47-3.53-1.5,3.53Zm24.56,3.34a4.54,4.54,0,0,0,2.73-.92l.09-2.1A3.76,3.76,0,0,1,59.23,97c-1.74,0-3-1.44-3-3.43S57.55,90,59.32,90a3.17,3.17,0,0,1,2.4,1.21l.17-1.85a4.46,4.46,0,0,0-2.67-.89c-2.63,0-4.61,2.14-4.61,5.05a5.13,5.13,0,0,0,1.75,4,4.34,4.34,0,0,0,2.82,1m21.36-.31h1.58V94h4.33v4.23H88V88.81H86.45v3.77H82.12V88.81H80.54Zm26.73,0h1.6V88.81h-1.6Zm20.88,0h1.54v-6l5.85,6.32h.17V88.81h-1.55v6l-5.84-6.32h-.17Zm26.79,0h5.23V96.8h-3.68V94h3.21V92.59h-3.21V90.26h3.68V88.81h-5.23Zm-68-93H73.72l6.63,14.46Zm-14.23,16-4.06,9.36H72.1L70,35.51H66.53l-1.81,4.18,4.9,3.56L76,29.16ZM66,5.26,54.33,32.13l4.34,3.15,13.64-30Zm41,26.65L94.68,5.26H88.35l13.78,30.11ZM76.54,48.28,80.23,51l3.83-2.73-3.74-8.89Zm8.11-19.15,6.46,14.09L95.7,40,88,21.26Zm-48.1,93.06h1.11l.46-2.41,1.5,2.6h.08l1.39-2.56.45,2.37h1.18l-1.09-5.37h-.09l-1.86,3.39-2-3.39h-.09Zm12.81-5.37h.08L52,122.19h-1.3l-.33-.76H48.29l-.34.76H46.7Zm.66,3.72-.68-1.64-.69,1.64ZM56.46,117h1.39c2,0,3.11,1,3.11,2.6a2.42,2.42,0,0,1-1.29,2.21,3.44,3.44,0,0,1-1.82.39H56.46Zm1.5,4.08c1.12,0,1.74-.58,1.74-1.48s-.62-1.5-1.74-1.5h-.27v3Zm7.91,1.12H69.1v-1.1h-2v-1h1.72V119H67.07v-.94h2V117h-3.2Zm14.4,0h1.25V117H80.27Zm6.51,0h1.14v-2.84l3.25,3h.11V117H90.14v2.86l-3.25-3h-.11Zm17.08-5.2h-1.23v3a2.2,2.2,0,1,0,4.38,0v-3H105.9v3c0,.83-.37,1.25-1,1.25s-1-.46-1-1.37Zm9.56,4.26a2.84,2.84,0,0,1-1.47-.53l.11,1.39a4.82,4.82,0,0,0,1.38.25,1.71,1.71,0,0,0,1.9-1.7c0-.83-.54-1.21-1.3-1.63l-.61-.34c-.24-.13-.36-.29-.36-.47s.21-.42.57-.42a2.76,2.76,0,0,1,1.28.49v-1.22a4.33,4.33,0,0,0-1.31-.26,1.52,1.52,0,0,0-1.7,1.43,1.67,1.67,0,0,0,1,1.49l.35.2c.53.3.87.45.87.81s-.27.51-.72.51m8.7-4.43h.08l2.6,5.37h-1.3l-.33-.76h-2.11l-.34.76h-1.25Zm.67,3.72-.68-1.64-.69,1.64Z" transform="translate(-1.17 -1.27)"/><path class="cls-2" d="M96.54,3l13.92,30.17L80.17,54.75,50.85,33.42,64.05,3Zm1.1-1.73H62.91l-.45,1L49.27,32.73,48.72,34l1.12.81L79.15,56.15l1,.73,1-.72,30.29-21.58,1.17-.83-.6-1.3L98.11,2.27ZM29.39,118.63l-2,.21,1.5,1.35-.42,2,1.74-1,1.75,1-.42-2,1.5-1.35-2-.21-.82-1.84Zm100.93,0-2,.21,1.5,1.35-.42,2,1.74-1,1.75,1-.42-2,1.5-1.35-2-.21-.83-1.84Z" transform="translate(-1.17 -1.27)"/></svg>